# xmcd
#
# Track frame offsets: 
#        150
#        16069
#        29297
#        44434
#        62005
#        76995
#        92156
#        109755
#
# Disc length: 1732 seconds
#
# Revision: 1
# Processed by: cddbd v1.5.2PL0 Copyright (c) Steve Scherf et al.
# Submitted via: ExactAudioCopy v0.99pb5
#
DISCID=5906c208
DTITLE=Papo Felix and Ray Rodriguez - Papo Felix Meets Ray Rodriguez
DYEAR=2006
DGENRE=Salsa
TTITLE0=Para Puerto Rico Voy
TTITLE1=Workout Part 1
TTITLE2=Hechate Pa Ya
TTITLE3=Senor Flauta
TTITLE4=Felix The Cat
TTITLE5=Workout Part 2
TTITLE6=Solo Me Admiras
TTITLE7=Bob and Bill Manor E
EXTD=YEAR: 2006
EXTT0=
EXTT1=
EXTT2=
EXTT3=
EXTT4=
EXTT5=
EXTT6=
EXTT7=
PLAYORDER=
